<svg 
 xmlns="http://www.w3.org/2000/svg"
 xmlns:xlink="http://www.w3.org/1999/xlink"
 width="29px" height="36px">
<defs>
<linearGradient id="PSgrad_0" x1="0%" x2="0%" y1="100%" y2="0%">
  <stop offset="0%" stop-color="rgb(252,68,44)" stop-opacity="1" />
  <stop offset="100%" stop-color="rgb(255,168,91)" stop-opacity="1" />
</linearGradient>

</defs>
<path fill-rule="evenodd"  fill="rgb(0, 0, 0)"
 d="M28.976,20.404 L28.820,17.611 L27.115,19.828 C26.979,20.005 26.690,20.317 26.321,20.602 C26.467,20.119 26.597,19.568 26.683,18.961 C26.981,16.857 26.795,13.627 24.221,10.192 L23.141,8.750 L22.433,10.407 C21.617,12.317 20.296,13.276 19.068,12.848 C18.123,12.519 17.355,11.438 16.961,9.882 C16.593,8.430 16.379,5.875 17.450,1.948 L17.904,0.281 L16.219,0.661 C10.533,1.941 6.702,5.978 5.139,12.333 C4.482,15.004 4.359,17.535 4.377,19.247 C3.034,18.162 2.363,17.209 2.345,17.184 L1.066,15.305 L0.483,17.505 C0.162,18.714 0.000,19.965 0.000,21.224 C0.000,29.156 6.408,35.620 14.321,35.716 C14.381,35.718 14.440,35.718 14.500,35.718 C14.560,35.718 14.619,35.718 14.679,35.716 C22.592,35.620 29.000,29.156 29.000,21.224 C29.000,20.958 28.992,20.682 28.976,20.404 ZM14.500,33.640 C11.818,33.640 9.636,31.459 9.636,28.778 C9.636,24.100 11.849,22.004 13.575,21.081 C13.355,22.269 13.550,23.394 13.916,24.232 C14.462,25.481 15.436,26.299 16.521,26.420 C16.948,26.468 17.662,26.431 18.410,25.887 C19.024,26.717 19.364,27.731 19.364,28.778 C19.364,31.459 17.182,33.640 14.500,33.640 ZM20.641,32.013 C21.152,31.047 21.443,29.946 21.443,28.778 C21.443,26.811 20.602,24.928 19.137,23.613 L18.284,22.848 L17.605,23.770 C17.432,24.005 17.091,24.393 16.752,24.355 C16.483,24.325 16.091,24.018 15.821,23.400 C15.448,22.546 15.372,21.195 16.279,19.967 L17.718,18.018 L15.313,18.319 C15.232,18.329 13.306,18.584 11.395,20.019 C8.223,22.402 7.558,26.098 7.558,28.778 C7.558,29.946 7.848,31.047 8.360,32.014 C4.611,29.874 2.079,25.839 2.079,21.223 C2.079,20.830 2.098,20.437 2.135,20.047 C2.836,20.711 3.786,21.484 4.996,22.201 L6.802,23.272 L6.559,21.187 C6.554,21.146 6.099,17.091 7.171,12.776 C8.398,7.842 11.035,4.618 15.023,3.170 C14.467,5.915 14.438,8.385 14.946,10.392 C15.514,12.638 16.768,14.249 18.385,14.811 C19.509,15.202 20.721,15.057 21.797,14.402 C22.417,14.025 22.977,13.488 23.459,12.817 C24.499,14.675 24.895,16.607 24.637,18.579 C24.392,20.445 23.624,21.664 23.619,21.672 L22.730,23.035 L24.341,23.267 C25.153,23.384 26.000,23.206 26.828,22.749 C26.339,26.718 23.969,30.113 20.641,32.013 Z"/>
<path fill="url(#PSgrad_0)"
 d="M28.976,20.404 L28.820,17.611 L27.115,19.828 C26.979,20.005 26.690,20.317 26.321,20.602 C26.467,20.119 26.597,19.568 26.683,18.961 C26.981,16.857 26.795,13.627 24.221,10.192 L23.141,8.750 L22.433,10.407 C21.617,12.317 20.296,13.276 19.068,12.848 C18.123,12.519 17.355,11.438 16.961,9.882 C16.593,8.430 16.379,5.875 17.450,1.948 L17.904,0.281 L16.219,0.661 C10.533,1.941 6.702,5.978 5.139,12.333 C4.482,15.004 4.359,17.535 4.377,19.247 C3.034,18.162 2.363,17.209 2.345,17.184 L1.066,15.305 L0.483,17.505 C0.162,18.714 0.000,19.965 0.000,21.224 C0.000,29.156 6.408,35.620 14.321,35.716 C14.381,35.718 14.440,35.718 14.500,35.718 C14.560,35.718 14.619,35.718 14.679,35.716 C22.592,35.620 29.000,29.156 29.000,21.224 C29.000,20.958 28.992,20.682 28.976,20.404 ZM14.500,33.640 C11.818,33.640 9.636,31.459 9.636,28.778 C9.636,24.100 11.849,22.004 13.575,21.081 C13.355,22.269 13.550,23.394 13.916,24.232 C14.462,25.481 15.436,26.299 16.521,26.420 C16.948,26.468 17.662,26.431 18.410,25.887 C19.024,26.717 19.364,27.731 19.364,28.778 C19.364,31.459 17.182,33.640 14.500,33.640 ZM20.641,32.013 C21.152,31.047 21.443,29.946 21.443,28.778 C21.443,26.811 20.602,24.928 19.137,23.613 L18.284,22.848 L17.605,23.770 C17.432,24.005 17.091,24.393 16.752,24.355 C16.483,24.325 16.091,24.018 15.821,23.400 C15.448,22.546 15.372,21.195 16.279,19.967 L17.718,18.018 L15.313,18.319 C15.232,18.329 13.306,18.584 11.395,20.019 C8.223,22.402 7.558,26.098 7.558,28.778 C7.558,29.946 7.848,31.047 8.360,32.014 C4.611,29.874 2.079,25.839 2.079,21.223 C2.079,20.830 2.098,20.437 2.135,20.047 C2.836,20.711 3.786,21.484 4.996,22.201 L6.802,23.272 L6.559,21.187 C6.554,21.146 6.099,17.091 7.171,12.776 C8.398,7.842 11.035,4.618 15.023,3.170 C14.467,5.915 14.438,8.385 14.946,10.392 C15.514,12.638 16.768,14.249 18.385,14.811 C19.509,15.202 20.721,15.057 21.797,14.402 C22.417,14.025 22.977,13.488 23.459,12.817 C24.499,14.675 24.895,16.607 24.637,18.579 C24.392,20.445 23.624,21.664 23.619,21.672 L22.730,23.035 L24.341,23.267 C25.153,23.384 26.000,23.206 26.828,22.749 C26.339,26.718 23.969,30.113 20.641,32.013 Z"/>
</svg>