<svg
 xmlns="http://www.w3.org/2000/svg"
 xmlns:xlink="http://www.w3.org/1999/xlink"
 width="51px" height="43px">
<path fill-rule="evenodd"  fill="rgb(255, 203, 105)"
 d="M49.999,18.802 L45.311,18.802 C44.289,18.802 43.411,18.180 43.036,17.295 L39.176,17.295 C36.849,17.295 34.645,16.407 32.971,14.795 L27.602,9.626 C26.450,8.517 26.396,6.659 27.482,5.485 C28.589,4.289 30.468,4.210 31.672,5.310 L35.887,9.165 C36.293,9.535 36.320,10.164 35.948,10.568 C35.577,10.972 34.947,11.000 34.541,10.629 L30.326,6.775 C29.930,6.413 29.310,6.438 28.946,6.832 C28.588,7.219 28.606,7.831 28.985,8.196 L34.354,13.366 C35.655,14.618 37.367,15.308 39.176,15.308 L42.843,15.308 L42.843,9.440 C40.764,9.381 38.821,8.443 37.486,6.843 L34.999,3.860 C33.999,2.662 32.528,1.974 30.964,1.974 L20.562,1.974 C19.965,1.974 19.480,2.458 19.480,3.053 C19.480,3.647 19.966,4.131 20.562,4.131 L24.816,4.131 C25.366,4.131 25.812,4.576 25.812,5.125 C25.812,5.673 25.366,6.118 24.816,6.118 L20.562,6.118 C18.867,6.118 17.489,4.743 17.489,3.053 C17.489,1.362 18.867,-0.013 20.562,-0.013 L30.964,-0.013 C33.122,-0.013 35.150,0.936 36.530,2.590 L39.017,5.573 C40.011,6.764 41.469,7.450 43.022,7.459 C43.388,6.555 44.276,5.916 45.311,5.916 L46.272,5.916 C46.822,5.916 47.268,6.361 47.268,6.909 C47.268,7.458 46.822,7.903 46.272,7.903 L45.311,7.903 C45.048,7.903 44.834,8.116 44.834,8.378 L44.834,16.340 C44.834,16.602 45.048,16.816 45.311,16.816 L49.003,16.816 L49.003,10.157 C49.003,9.608 49.449,9.164 49.999,9.164 C50.549,9.164 50.995,9.608 50.995,10.156 L50.995,17.809 C50.995,18.357 50.549,18.802 49.999,18.802 ZM49.999,7.899 C49.451,7.899 49.007,7.456 49.007,6.909 C49.007,6.362 49.451,5.919 49.999,5.919 C50.547,5.919 50.991,6.362 50.991,6.909 C50.991,7.456 50.547,7.899 49.999,7.899 ZM17.426,11.292 L17.413,11.302 C17.229,11.448 17.010,11.519 16.793,11.519 C16.500,11.519 16.210,11.390 16.013,11.144 C15.671,10.715 15.742,10.090 16.172,9.748 L16.792,10.525 L16.175,9.746 C16.603,9.403 17.230,9.470 17.575,9.897 C17.919,10.324 17.853,10.948 17.426,11.292 ZM14.674,13.624 C14.457,13.624 14.239,13.554 14.056,13.409 C13.626,13.069 13.553,12.445 13.894,12.015 C13.899,12.009 13.910,11.996 13.915,11.990 C14.266,11.568 14.894,11.510 15.317,11.860 C15.738,12.209 15.798,12.830 15.453,13.252 C15.256,13.497 14.966,13.624 14.674,13.624 ZM13.943,15.581 C13.768,15.929 13.416,16.131 13.050,16.131 C12.903,16.131 12.753,16.098 12.612,16.029 C12.118,15.787 11.915,15.192 12.158,14.700 L12.174,14.668 C12.429,14.182 13.031,13.995 13.518,14.250 C14.002,14.503 14.191,15.098 13.943,15.581 ZM12.967,18.172 C12.854,18.623 12.448,18.925 12.001,18.925 C11.923,18.925 11.845,18.916 11.766,18.897 C11.231,18.768 10.903,18.232 11.033,17.699 C11.035,17.690 11.040,17.671 11.042,17.662 C11.187,17.132 11.734,16.821 12.265,16.965 C12.792,17.108 13.104,17.647 12.967,18.172 ZM12.568,20.920 C12.548,21.455 12.107,21.878 11.573,21.878 C11.563,21.878 11.553,21.878 11.543,21.877 C10.993,21.861 10.561,21.404 10.577,20.856 C10.577,20.843 10.578,20.831 10.579,20.818 C10.611,20.270 11.080,19.853 11.631,19.883 C12.175,19.915 12.593,20.378 12.568,20.920 ZM11.774,24.851 C11.301,24.851 10.883,24.517 10.797,24.037 L10.795,24.027 C10.698,23.487 11.059,22.971 11.600,22.875 C12.141,22.778 12.659,23.137 12.756,23.677 C12.853,24.217 12.494,24.738 11.952,24.835 C11.892,24.846 11.833,24.851 11.774,24.851 ZM18.024,28.183 L23.393,33.352 C24.545,34.461 24.599,36.319 23.513,37.493 C22.929,38.124 22.130,38.444 21.329,38.444 C20.611,38.444 19.892,38.187 19.323,37.667 L15.108,33.813 C14.702,33.442 14.675,32.814 15.047,32.410 C15.418,32.005 16.048,31.978 16.454,32.349 L20.669,36.203 C21.065,36.565 21.684,36.539 22.049,36.145 C22.407,35.759 22.389,35.147 22.010,34.781 L16.641,29.612 C15.340,28.359 13.627,27.669 11.819,27.669 L8.152,27.669 L8.152,33.537 C10.231,33.597 12.174,34.534 13.508,36.135 L15.996,39.117 C16.996,40.316 18.467,41.004 20.030,41.004 L30.433,41.004 C31.029,41.004 31.515,40.520 31.515,39.925 C31.515,39.330 31.029,38.846 30.433,38.846 L26.569,38.846 C26.019,38.846 25.573,38.401 25.573,37.853 C25.573,37.304 26.019,36.859 26.569,36.859 L30.433,36.859 C32.127,36.859 33.506,38.235 33.506,39.925 C33.506,41.616 32.127,42.991 30.433,42.991 L20.030,42.991 C17.873,42.991 15.845,42.042 14.465,40.388 L11.977,37.405 C10.984,36.214 9.526,35.528 7.973,35.519 C7.607,36.423 6.719,37.062 5.684,37.062 L4.650,37.062 C4.100,37.062 3.654,36.617 3.654,36.069 C3.654,35.520 4.100,35.075 4.650,35.075 L5.684,35.075 C5.947,35.075 6.161,34.862 6.161,34.600 L6.161,26.638 C6.161,26.376 5.947,26.162 5.684,26.162 L1.992,26.162 L1.992,32.433 C1.992,32.982 1.546,33.426 0.996,33.426 C0.446,33.426 -0.000,32.982 -0.000,32.433 L-0.000,25.169 C-0.000,24.620 0.446,24.176 0.996,24.176 L5.684,24.176 C6.705,24.176 7.584,24.798 7.959,25.683 L11.819,25.683 C14.146,25.683 16.350,26.571 18.024,28.183 ZM0.996,35.079 C1.544,35.079 1.988,35.522 1.988,36.069 C1.988,36.616 1.544,37.059 0.996,37.059 C0.448,37.059 0.003,36.616 0.003,36.069 C0.003,35.522 0.448,35.079 0.996,35.079 ZM32.154,33.772 C32.381,34.272 32.156,34.861 31.655,35.087 C31.651,35.089 31.638,35.095 31.634,35.097 C31.504,35.153 31.369,35.179 31.237,35.179 C30.852,35.179 30.486,34.956 30.323,34.582 C30.104,34.079 30.334,33.494 30.839,33.275 C31.339,33.050 31.928,33.272 32.154,33.772 ZM29.370,34.887 C29.484,35.424 29.142,35.951 28.604,36.064 C28.597,36.066 28.581,36.069 28.574,36.071 C28.511,36.082 28.448,36.088 28.386,36.088 C27.918,36.088 27.501,35.757 27.409,35.281 C27.307,34.745 27.657,34.227 28.193,34.120 C28.730,34.010 29.257,34.352 29.370,34.887 ZM19.316,9.903 C18.950,9.903 18.597,9.703 18.422,9.355 C18.176,8.864 18.371,8.270 18.863,8.025 L18.872,8.021 C19.364,7.775 19.962,7.974 20.208,8.465 C20.454,8.956 20.255,9.552 19.763,9.797 C19.619,9.869 19.466,9.903 19.316,9.903 ZM22.107,8.867 C21.664,8.867 21.261,8.569 21.145,8.121 C21.008,7.590 21.331,7.048 21.863,6.911 C21.868,6.910 21.882,6.906 21.887,6.905 C22.422,6.776 22.960,7.103 23.089,7.636 C23.219,8.170 22.891,8.707 22.356,8.836 C22.273,8.857 22.189,8.867 22.107,8.867 ZM25.564,17.569 C26.420,16.670 27.621,16.137 28.917,16.137 C31.467,16.137 33.541,18.206 33.541,20.749 C33.541,21.984 33.059,23.144 32.183,24.015 C32.156,24.041 32.129,24.066 32.100,24.089 L26.184,28.789 C26.003,28.933 25.783,29.005 25.564,29.005 C25.345,29.005 25.127,28.934 24.945,28.791 L19.270,24.309 C19.264,24.304 19.257,24.299 19.251,24.293 C18.193,23.414 17.586,22.122 17.586,20.749 C17.586,18.206 19.660,16.137 22.210,16.137 C23.507,16.137 24.708,16.670 25.564,17.569 ZM22.210,18.123 C20.759,18.123 19.578,19.302 19.578,20.750 C19.578,21.527 19.920,22.259 20.517,22.760 L25.562,26.744 L30.812,22.573 C31.288,22.081 31.550,21.435 31.550,20.750 C31.550,19.302 30.369,18.123 28.917,18.123 C27.848,18.123 26.893,18.760 26.484,19.745 C26.329,20.116 25.966,20.358 25.564,20.358 C25.161,20.358 24.798,20.116 24.644,19.745 C24.234,18.760 23.279,18.123 22.210,18.123 ZM33.236,31.890 C33.679,31.567 34.304,31.659 34.630,32.100 C34.956,32.541 34.866,33.158 34.425,33.484 C34.423,33.485 34.414,33.492 34.412,33.493 C34.235,33.623 34.029,33.685 33.825,33.685 C33.518,33.685 33.216,33.544 33.021,33.278 C32.696,32.836 32.792,32.214 33.236,31.890 ZM35.304,30.012 C35.673,29.604 36.302,29.572 36.710,29.939 C37.118,30.306 37.151,30.933 36.785,31.340 C36.588,31.563 36.313,31.678 36.036,31.678 C35.806,31.678 35.575,31.598 35.386,31.436 C34.970,31.078 34.924,30.451 35.283,30.035 C35.288,30.030 35.299,30.017 35.304,30.012 ZM36.154,30.777 L36.163,30.785 L36.044,30.677 L36.154,30.777 ZM36.899,27.782 L36.913,27.757 C37.184,27.280 37.792,27.112 38.270,27.383 C38.749,27.653 38.917,28.259 38.646,28.737 L37.779,28.247 L38.645,28.738 C38.465,29.068 38.126,29.254 37.774,29.254 C37.613,29.254 37.449,29.215 37.297,29.133 C36.814,28.872 36.637,28.264 36.899,27.782 ZM38.003,25.221 C38.162,24.696 38.719,24.397 39.245,24.556 C39.772,24.715 40.070,25.267 39.910,25.792 L39.906,25.805 C39.774,26.232 39.380,26.507 38.955,26.507 C38.858,26.507 38.759,26.493 38.661,26.463 C38.136,26.301 37.841,25.746 38.003,25.221 ZM39.716,20.582 C39.657,20.593 39.598,20.598 39.539,20.598 C39.070,20.598 38.654,20.266 38.563,19.792 C38.455,19.258 38.799,18.734 39.336,18.623 C39.874,18.511 40.401,18.854 40.514,19.391 C40.516,19.404 40.519,19.416 40.521,19.429 C40.618,19.969 40.257,20.485 39.716,20.582 ZM39.461,23.575 C38.912,23.543 38.493,23.073 38.525,22.526 C38.526,22.516 38.527,22.496 38.528,22.487 C38.576,21.940 39.061,21.536 39.608,21.584 C40.154,21.632 40.558,22.112 40.513,22.656 C40.474,23.177 40.039,23.577 39.520,23.577 C39.500,23.577 39.481,23.576 39.461,23.575 Z"/>
</svg>
