<svg 
 xmlns="http://www.w3.org/2000/svg"
 xmlns:xlink="http://www.w3.org/1999/xlink"
 width="51px" height="43px">
<path fill-rule="evenodd"  fill="rgb(255, 203, 105)"
 d="M50.074,23.751 C49.866,23.960 49.593,24.064 49.320,24.064 C49.049,24.064 48.778,23.962 48.571,23.756 C48.155,23.343 48.152,22.670 48.565,22.254 C48.762,22.056 48.875,21.781 48.875,21.500 C48.875,20.914 48.405,20.438 47.828,20.438 C47.251,20.438 46.781,20.914 46.781,21.500 C46.781,25.049 45.628,28.414 43.446,31.231 C42.172,32.875 40.388,36.766 39.435,40.622 L41.760,40.622 C42.347,40.622 42.823,41.098 42.823,41.685 C42.823,42.271 42.347,42.747 41.760,42.747 L38.109,42.747 L31.917,42.747 C31.631,42.747 31.357,42.631 31.157,42.427 C30.957,42.222 30.848,41.945 30.855,41.659 C30.883,40.464 30.739,39.232 30.612,38.145 C30.598,38.028 30.585,37.912 30.572,37.798 C27.307,38.597 24.680,38.779 22.130,38.384 L21.473,40.622 L21.878,40.622 C22.465,40.622 22.941,41.098 22.941,41.685 C22.941,42.271 22.465,42.747 21.878,42.747 L20.053,42.747 L14.209,42.747 L10.558,42.747 C9.971,42.747 9.495,42.271 9.495,41.685 C9.495,41.098 9.971,40.622 10.558,40.622 L13.271,40.622 C13.452,39.163 13.639,37.545 13.745,36.180 C10.427,35.354 7.879,34.503 5.132,30.928 L3.951,30.928 C3.152,30.928 2.077,30.550 1.496,28.747 L0.262,24.910 C-0.152,23.622 -0.079,22.545 0.479,21.707 C0.864,21.129 1.675,20.410 3.348,20.270 C4.439,20.177 4.777,20.064 5.308,18.104 C6.239,14.671 8.191,12.148 11.267,10.407 L11.979,3.334 C12.019,2.939 12.275,2.600 12.644,2.453 C13.012,2.306 13.432,2.377 13.732,2.637 L19.115,7.298 C20.741,6.657 22.458,6.192 24.242,5.905 C24.087,5.466 24.002,4.994 24.002,4.502 C24.002,2.159 25.909,0.253 28.252,0.253 C30.596,0.253 32.503,2.159 32.503,4.502 C32.503,4.981 32.422,5.442 32.275,5.872 C36.050,6.463 39.327,7.904 41.826,10.083 C44.366,12.299 45.968,15.202 46.542,18.588 C46.936,18.412 47.370,18.313 47.828,18.313 C49.577,18.313 51.000,19.743 51.000,21.500 C51.000,22.350 50.671,23.149 50.074,23.751 ZM28.253,2.378 C27.081,2.378 26.128,3.331 26.128,4.502 C26.128,5.674 27.081,6.627 28.253,6.627 C29.424,6.627 30.378,5.674 30.378,4.502 C30.378,3.331 29.424,2.378 28.253,2.378 ZM30.889,7.832 C30.164,8.407 29.248,8.752 28.253,8.752 C27.271,8.752 26.367,8.417 25.647,7.856 C23.441,8.112 21.266,8.679 19.331,9.506 C18.957,9.666 18.525,9.598 18.218,9.332 L13.888,5.583 L13.325,11.180 C13.289,11.537 13.075,11.852 12.757,12.017 C10.961,12.947 8.448,14.647 7.359,18.660 C6.747,20.919 5.955,22.182 3.527,22.387 C2.880,22.441 2.425,22.618 2.247,22.885 C2.071,23.149 2.085,23.637 2.285,24.259 L3.520,28.096 C3.625,28.422 3.801,28.804 3.952,28.804 L5.665,28.804 C6.004,28.804 6.324,28.966 6.524,29.241 C9.174,32.881 11.411,33.426 15.117,34.330 C15.614,34.450 15.954,34.908 15.926,35.419 C15.845,36.912 15.629,38.865 15.413,40.622 L19.258,40.622 L20.361,36.867 C20.518,36.334 21.058,36.011 21.602,36.127 C24.416,36.727 27.293,36.519 31.222,35.433 C31.528,35.349 31.857,35.405 32.117,35.588 C32.377,35.771 32.541,36.061 32.565,36.378 C32.599,36.841 32.659,37.355 32.723,37.899 C32.821,38.740 32.929,39.664 32.968,40.622 L37.251,40.622 C38.162,36.673 40.070,32.120 41.766,29.931 C43.657,27.489 44.657,24.574 44.657,21.500 C44.657,12.517 37.629,8.570 30.889,7.832 ZM39.213,29.052 C38.986,29.052 38.757,28.980 38.563,28.830 C38.100,28.470 38.015,27.803 38.374,27.339 C39.961,25.291 40.641,22.756 40.288,20.201 C40.208,19.620 40.614,19.084 41.195,19.003 C41.776,18.924 42.313,19.329 42.393,19.910 C42.825,23.036 41.994,26.137 40.054,28.640 C39.845,28.911 39.531,29.052 39.213,29.052 ZM40.855,17.883 C40.707,17.954 40.550,17.988 40.396,17.988 C40.000,17.988 39.620,17.766 39.437,17.385 C39.364,17.232 39.284,17.077 39.200,16.924 C38.918,16.410 39.106,15.764 39.621,15.482 C40.135,15.199 40.781,15.387 41.063,15.902 C41.165,16.088 41.263,16.278 41.353,16.465 C41.607,16.994 41.384,17.629 40.855,17.883 ZM31.588,12.084 C29.619,11.814 27.474,11.911 25.384,12.364 C25.308,12.380 25.233,12.388 25.158,12.388 C24.669,12.388 24.229,12.048 24.121,11.551 C23.996,10.977 24.361,10.411 24.934,10.287 C27.264,9.782 29.665,9.676 31.877,9.979 C32.458,10.058 32.865,10.594 32.785,11.175 C32.705,11.757 32.170,12.164 31.588,12.084 ZM12.694,19.368 C12.109,19.368 11.632,18.891 11.632,18.306 C11.632,17.721 12.109,17.243 12.694,17.243 C13.279,17.243 13.757,17.720 13.757,18.306 C13.757,18.891 13.279,19.368 12.694,19.368 ZM27.432,40.622 L28.423,40.622 C29.010,40.622 29.486,41.098 29.486,41.685 C29.486,42.272 29.010,42.747 28.423,42.747 L27.432,42.747 C26.845,42.747 26.369,42.271 26.369,41.685 C26.369,41.098 26.845,40.622 27.432,40.622 Z"/>
</svg>