<svg 
 xmlns="http://www.w3.org/2000/svg"
 xmlns:xlink="http://www.w3.org/1999/xlink"
 width="33px" height="33px">
<path fill-rule="evenodd"  fill="rgb(255, 203, 105)"
 d="M32.677,29.472 L29.472,32.677 C29.265,32.884 28.984,33.000 28.692,33.000 C28.399,33.000 28.118,32.884 27.911,32.677 L21.344,26.109 L18.638,30.794 C18.426,31.160 18.024,31.374 17.602,31.343 C17.181,31.313 16.813,31.044 16.657,30.651 L8.323,9.756 C8.160,9.347 8.256,8.879 8.568,8.568 C8.880,8.256 9.347,8.159 9.757,8.323 L30.652,16.657 C31.045,16.813 31.313,17.181 31.343,17.602 C31.374,18.024 31.161,18.426 30.795,18.637 L26.109,21.344 L32.677,27.911 C33.108,28.342 33.108,29.041 32.677,29.472 ZM23.531,21.888 C23.289,21.645 23.173,21.304 23.218,20.964 C23.262,20.623 23.463,20.323 23.760,20.152 L27.721,17.864 L11.325,11.325 L17.864,27.721 L20.152,23.760 C20.323,23.463 20.623,23.263 20.964,23.218 C21.011,23.212 21.060,23.209 21.107,23.209 C21.398,23.209 21.679,23.323 21.888,23.532 L28.692,30.336 L30.336,28.692 L23.531,21.888 ZM15.880,6.789 C15.664,7.004 15.382,7.112 15.099,7.112 C14.817,7.112 14.534,7.004 14.319,6.789 C13.888,6.358 13.888,5.659 14.319,5.228 L16.771,2.776 C17.202,2.345 17.901,2.345 18.332,2.776 C18.763,3.207 18.763,3.905 18.332,4.337 L15.880,6.789 ZM10.913,5.675 C10.303,5.675 9.809,5.181 9.809,4.572 L9.809,1.104 C9.809,0.494 10.304,0.000 10.913,0.000 C11.523,0.000 12.017,0.494 12.017,1.104 L12.017,4.572 C12.017,5.181 11.522,5.675 10.913,5.675 ZM6.516,7.620 C6.234,7.620 5.951,7.512 5.736,7.297 L3.283,4.844 C2.852,4.413 2.852,3.715 3.283,3.284 C3.715,2.853 4.413,2.853 4.845,3.284 L7.297,5.736 C7.728,6.167 7.728,6.866 7.297,7.297 C7.081,7.512 6.799,7.620 6.516,7.620 ZM5.675,10.913 C5.675,11.522 5.181,12.016 4.572,12.016 L1.104,12.016 C0.494,12.016 -0.000,11.522 -0.000,10.913 C-0.000,10.303 0.494,9.809 1.104,9.809 L4.572,9.809 C5.181,9.809 5.675,10.303 5.675,10.913 ZM5.228,14.319 C5.659,13.888 6.358,13.888 6.789,14.319 C7.220,14.750 7.220,15.449 6.789,15.880 L4.336,18.332 C4.121,18.547 3.838,18.655 3.556,18.655 C3.273,18.655 2.991,18.547 2.776,18.332 C2.344,17.901 2.344,17.202 2.776,16.771 L5.228,14.319 Z"/>
</svg>