<svg
 xmlns="http://www.w3.org/2000/svg"
 xmlns:xlink="http://www.w3.org/1999/xlink"
 width="41px" height="41px">
<path fill-rule="evenodd"  fill="rgb(255, 203, 105)"
 d="M34.996,34.998 C31.123,38.871 25.978,41.000 20.498,41.000 C17.097,41.000 13.756,40.159 10.784,38.562 C8.576,40.081 5.931,40.948 3.414,40.948 C2.908,40.948 2.418,40.906 1.963,40.837 C1.130,40.708 0.494,40.064 0.365,39.231 C0.245,38.407 0.666,37.600 1.413,37.231 C2.633,36.630 3.724,35.376 4.643,33.495 C-2.014,25.407 -1.473,13.472 6.000,6.002 C9.873,2.129 15.018,0.000 20.498,0.000 C25.978,0.000 31.123,2.138 34.996,6.010 C38.870,9.883 41.000,15.035 41.000,20.504 C41.000,25.974 38.870,31.126 34.996,34.998 ZM33.356,7.633 C29.920,4.199 25.359,2.310 20.498,2.310 C15.645,2.310 11.076,4.199 7.640,7.633 C0.855,14.416 0.520,25.356 6.876,32.534 C7.176,32.877 7.254,33.358 7.073,33.770 C6.103,35.994 4.943,37.591 3.560,38.622 C4.720,38.596 7.365,38.295 9.994,36.260 C10.200,36.106 10.457,36.020 10.706,36.020 C10.904,36.020 11.110,36.080 11.291,36.183 C14.065,37.815 17.251,38.682 20.498,38.682 C25.351,38.682 29.920,36.793 33.356,33.358 C40.450,26.274 40.450,14.734 33.356,7.633 ZM21.305,32.216 C21.082,32.440 20.781,32.551 20.489,32.551 C20.197,32.551 19.897,32.431 19.673,32.208 L10.406,22.943 C9.100,21.629 8.370,19.895 8.370,18.040 C8.362,16.194 9.083,14.451 10.397,13.137 C11.703,11.832 13.446,11.111 15.293,11.111 C17.148,11.111 18.892,11.832 20.206,13.146 L20.498,13.438 L20.790,13.146 C22.104,11.832 23.848,11.111 25.703,11.111 C27.550,11.111 29.293,11.832 30.607,13.146 C31.913,14.459 32.634,16.202 32.634,18.057 C32.634,19.903 31.913,21.646 30.599,22.960 L21.305,32.216 ZM28.967,14.786 C28.091,13.910 26.931,13.429 25.703,13.429 C24.466,13.429 23.307,13.910 22.431,14.786 L21.323,15.893 C20.867,16.348 20.137,16.348 19.682,15.893 L18.565,14.777 C17.689,13.901 16.530,13.421 15.293,13.421 C14.056,13.421 12.897,13.901 12.029,14.768 C11.162,15.636 10.681,16.795 10.681,18.031 C10.681,19.268 11.162,20.427 12.038,21.303 L20.489,29.752 L28.958,21.320 C29.834,20.444 30.315,19.285 30.315,18.049 C30.324,16.821 29.843,15.662 28.967,14.786 Z"/>
</svg>
