<svg 
 xmlns="http://www.w3.org/2000/svg"
 xmlns:xlink="http://www.w3.org/1999/xlink"
 width="16px" height="21px">
<path fill-rule="evenodd"  fill="rgb(255, 216, 122)"
 d="M8.536,19.762 C8.250,20.079 7.750,20.079 7.464,19.762 C7.159,19.424 0.000,13.419 0.000,7.968 C0.000,3.574 3.589,-0.000 8.000,-0.000 C12.411,-0.000 16.000,3.574 16.000,7.968 C16.000,13.419 8.841,19.424 8.536,19.762 ZM8.000,1.435 C4.383,1.435 1.441,4.365 1.441,7.968 C1.441,11.709 5.591,15.333 8.000,18.183 C10.410,15.332 14.559,11.710 14.559,7.968 C14.559,4.365 11.617,1.435 8.000,1.435 ZM8.000,11.976 C5.781,11.976 3.975,10.178 3.975,7.968 C3.975,5.757 5.781,3.959 8.000,3.959 C10.219,3.959 12.025,5.757 12.025,7.968 C12.025,10.178 10.219,11.976 8.000,11.976 ZM8.000,5.394 C6.575,5.394 5.416,6.548 5.416,7.968 C5.416,9.387 6.575,10.541 8.000,10.541 C9.425,10.541 10.584,9.387 10.584,7.968 C10.584,6.548 9.425,5.394 8.000,5.394 Z"/>
</svg>