<svg xmlns="http://www.w3.org/2000/svg" width="40.969" height="41" viewBox="0 0 40.969 41">
  <metadata><?xpacket begin="﻿" id="W5M0MpCehiHzreSzNTczkc9d"?>
<x:xmpmeta xmlns:x="adobe:ns:meta/" x:xmptk="Adobe XMP Core 5.6-c142 79.160924, 2017/07/13-01:06:39        ">
   <rdf:RDF xmlns:rdf="http://www.w3.org/1999/02/22-rdf-syntax-ns#">
      <rdf:Description rdf:about=""/>
   </rdf:RDF>
</x:xmpmeta>
                                                                                                    
                                                                                                    
                                                                                                    
                                                                                                    
                                                                                                    
                                                                                                    
                                                                                                    
                                                                                                    
                                                                                                    
                                                                                                    
                                                                                                    
                                                                                                    
                                                                                                    
                                                                                                    
                                                                                                    
                                                                                                    
                                                                                                    
                                                                                                    
                                                                                                    
                                                                                                    
                           
<?xpacket end="w"?></metadata>
<defs>
    <style>
      .cls-1 {
        fill: #ffcb69;
        fill-rule: evenodd;
      }
    </style>
  </defs>
  <path class="cls-1" d="M174,1816.01a20.5,20.5,0,0,0-30.353,27.49,7.717,7.717,0,0,1-3.23,3.73,1.915,1.915,0,0,0,.55,3.61,9.592,9.592,0,0,0,1.451.11h0a13.269,13.269,0,0,0,7.37-2.39A20.5,20.5,0,0,0,174,1816.01Zm-1.64,27.35a18.2,18.2,0,0,1-22.065,2.82,1.164,1.164,0,0,0-1.3.08,10.966,10.966,0,0,1-6.434,2.36,11.68,11.68,0,0,0,3.513-4.85,1.175,1.175,0,0,0-.2-1.24A18.183,18.183,0,1,1,172.356,1843.36Zm-7.653-22.25a6.88,6.88,0,0,0-4.913,2.04l-0.292.29-0.292-.29a6.926,6.926,0,1,0-9.8,9.79l9.267,9.27a1.179,1.179,0,0,0,.816.34,1.167,1.167,0,0,0,.816-0.33l9.294-9.26A6.941,6.941,0,0,0,164.7,1821.11Zm3.255,10.21-8.469,8.43-8.451-8.45a4.613,4.613,0,1,1,6.527-6.52l1.117,1.11a1.148,1.148,0,0,0,1.641,0l1.108-1.1a4.606,4.606,0,0,1,6.536,0,4.521,4.521,0,0,1,1.348,3.26A4.606,4.606,0,0,1,167.958,1831.32Z" transform="translate(-139.031 -1810)"/>
</svg>
