<svg 
 xmlns="http://www.w3.org/2000/svg"
 xmlns:xlink="http://www.w3.org/1999/xlink"
 width="24px" height="16px">
<path fill-rule="evenodd"  fill="rgb(58, 185, 195)"
 d="M15.503,15.721 C15.867,16.094 16.450,16.094 16.814,15.721 L23.727,8.672 C23.905,8.489 24.001,8.242 24.001,8.003 C24.001,7.763 23.912,7.516 23.727,7.333 L16.814,0.284 C16.450,-0.090 15.867,-0.090 15.503,0.284 C15.140,0.658 15.140,1.257 15.503,1.631 L20.831,7.050 L0.926,7.050 C0.412,7.050 -0.000,7.474 -0.000,8.003 C-0.000,8.531 0.412,8.954 0.926,8.954 L20.831,8.954 L15.503,14.374 C15.140,14.748 15.140,15.354 15.503,15.721 Z"/>
</svg>