<svg width="24px" height="16px">
<path fill-rule="evenodd"  fill="rgb(58, 185, 195)"
 d="M8.497,15.721 C8.133,16.094 7.550,16.094 7.186,15.721 L0.273,8.672 C0.095,8.489 -0.001,8.242 -0.001,8.003 C-0.001,7.763 0.088,7.516 0.273,7.333 L7.186,0.284 C7.550,-0.090 8.133,-0.090 8.497,0.284 C8.860,0.658 8.860,1.257 8.497,1.631 L3.169,7.050 L23.074,7.050 C23.588,7.050 24.000,7.474 24.000,8.003 C24.000,8.531 23.588,8.954 23.074,8.954 L3.169,8.954 L8.497,14.374 C8.860,14.748 8.860,15.354 8.497,15.721 Z"/>
</svg>
