<svg 
 xmlns="http://www.w3.org/2000/svg"
 xmlns:xlink="http://www.w3.org/1999/xlink"
 width="19px" height="18px">
<path fill-rule="evenodd"  fill="rgb(255, 216, 122)"
 d="M18.960,6.797 C18.866,6.509 18.617,6.300 18.316,6.256 L12.717,5.444 L10.211,0.405 C9.941,-0.136 9.049,-0.136 8.779,0.405 L6.273,5.445 L0.683,6.256 C0.382,6.300 0.132,6.510 0.039,6.797 C-0.054,7.084 0.023,7.399 0.241,7.610 L4.285,11.532 L3.334,17.073 C3.282,17.371 3.405,17.671 3.652,17.849 C3.791,17.949 3.955,18.000 4.120,18.000 C4.247,18.000 4.375,17.970 4.494,17.908 L9.496,15.294 L14.507,17.909 C14.777,18.048 15.103,18.027 15.348,17.848 C15.594,17.670 15.716,17.369 15.665,17.071 L14.707,11.531 L18.758,7.609 C18.976,7.399 19.054,7.085 18.960,6.797 ZM13.290,10.687 C13.102,10.870 13.016,11.132 13.060,11.390 L13.816,15.757 L9.866,13.695 C9.750,13.634 9.623,13.604 9.495,13.604 C9.366,13.604 9.238,13.634 9.123,13.695 L5.179,15.756 L5.929,11.389 C5.974,11.132 5.888,10.869 5.700,10.687 L2.511,7.595 L6.919,6.954 C7.178,6.917 7.403,6.755 7.519,6.521 L9.495,2.549 L11.470,6.521 C11.587,6.754 11.811,6.916 12.071,6.954 L16.484,7.595 L13.290,10.687 Z"/>
</svg>