<svg 
 xmlns="http://www.w3.org/2000/svg"
 xmlns:xlink="http://www.w3.org/1999/xlink"
 width="15px" height="10px">
<path fill-rule="evenodd"  fill="rgb(58, 185, 195)"
 d="M9.503,9.721 C9.867,10.094 10.450,10.094 10.814,9.721 L14.727,5.672 C14.905,5.489 15.001,5.242 15.001,5.002 C15.001,4.763 14.912,4.516 14.727,4.333 L10.814,0.284 C10.450,-0.090 9.867,-0.090 9.503,0.284 C9.140,0.658 9.140,1.257 9.503,1.631 L11.831,4.050 L0.926,4.050 C0.412,4.050 -0.000,4.474 -0.000,5.002 C-0.000,5.531 0.412,5.954 0.926,5.954 L11.831,5.954 L9.503,8.374 C9.140,8.748 9.140,9.354 9.503,9.721 Z"/>
</svg>