<svg 
 xmlns="http://www.w3.org/2000/svg"
 xmlns:xlink="http://www.w3.org/1999/xlink"
 width="18px" height="22px">
<defs>
<linearGradient id="PSgrad_0" x1="0%" x2="0%" y1="100%" y2="0%">
  <stop offset="0%" stop-color="rgb(252,68,44)" stop-opacity="1" />
  <stop offset="100%" stop-color="rgb(255,168,91)" stop-opacity="1" />
</linearGradient>

</defs>
<path fill-rule="evenodd"  fill="rgb(0, 0, 0)"
 d="M12.000,0.891 L6.000,0.891 L6.000,2.817 L12.000,2.817 L12.000,0.891 ZM8.000,13.407 L10.000,13.407 L10.000,7.630 L8.000,7.630 L8.000,13.407 ZM16.000,7.053 L17.500,5.705 C17.000,5.224 16.500,4.742 16.000,4.357 L14.600,5.705 C13.100,4.550 11.100,3.780 9.000,3.780 C4.000,3.780 0.000,7.630 0.000,12.444 C0.000,17.258 4.000,21.109 9.000,21.109 C14.000,21.109 18.000,17.258 18.000,12.444 C18.000,10.422 17.300,8.497 16.000,7.053 ZM9.000,19.183 C5.100,19.183 2.000,16.199 2.000,12.444 C2.000,8.689 5.100,5.705 9.000,5.705 C12.900,5.705 16.000,8.689 16.000,12.444 C16.000,16.199 12.900,19.183 9.000,19.183 Z"/>
<path fill="url(#PSgrad_0)"
 d="M12.000,0.891 L6.000,0.891 L6.000,2.817 L12.000,2.817 L12.000,0.891 ZM8.000,13.407 L10.000,13.407 L10.000,7.630 L8.000,7.630 L8.000,13.407 ZM16.000,7.053 L17.500,5.705 C17.000,5.224 16.500,4.742 16.000,4.357 L14.600,5.705 C13.100,4.550 11.100,3.780 9.000,3.780 C4.000,3.780 0.000,7.630 0.000,12.444 C0.000,17.258 4.000,21.109 9.000,21.109 C14.000,21.109 18.000,17.258 18.000,12.444 C18.000,10.422 17.300,8.497 16.000,7.053 ZM9.000,19.183 C5.100,19.183 2.000,16.199 2.000,12.444 C2.000,8.689 5.100,5.705 9.000,5.705 C12.900,5.705 16.000,8.689 16.000,12.444 C16.000,16.199 12.900,19.183 9.000,19.183 Z"/>
</svg>